<svg width="48" height="48" viewBox="0 0 48 48" xmlns="http://www.w3.org/2000/svg" xmlns:xlink="http://www.w3.org/1999/xlink">
  <title>
    SVG
  </title>
  <defs>
    <path d="M32.2369849 15.1041757c-4.1690456-.0497549-8.6491168-.2697047-10.3663353.285654-5.6467983 1.8262079-8.0749884 7.5996438-6.3497742 13.5687997 1.7252142 5.9691558 7.0197113 8.7415252 12.6665096 6.9153173 1.9993546-.6466031 5.1566541-3.0334116 9.054563-5.8373512.2819364.7953922.5649165 1.5716759.8469886 2.3041928 1.9220232 4.9913296 3.016865 8.6704351 3.4840842 11.8618963.1039183.7154871-.4925834 2.4123595-1.5619201 3.2098069-.8613908.6423738-2.3762188.6904184-2.8846351.465067-2.5955532-1.1543125-6.8618533-4.9837695-11.4951479-8.4543665-.0684605-.0512807-.1383592-.1034527-.2095544-.1564267-.5171856.4636757-1.025466.917403-1.513654 1.3532297-3.8936571 3.4760379-6.8631355 5.7143987-9.5881296 7.1706556-.6111662.3256437-2.3211162.2499016-3.3685269-.5794692-.8437285-.6680892-1.355032-2.1772201-1.3095328-2.7583447.23574704-2.9679324 1.384056-6.0857391 3.072627-11.8194922.2013048-.6835557.3951659-1.3554307.5827736-2.0122655-1.0860526-.7132152-2.1318935-1.3888274-3.0400472-1.9623403-4.3746823-2.7626781-7.34219255-5.0039576-9.5310286-7.2553364-.4900505-.5052583-.9790542-2.2401784-.5787307-3.5577964.3224756-1.0613905 1.5049372-2.064112 2.03918435-2.2078001 2.7296168-.7304744 5.81403318-.2959311 11.48885206-.4737805 1.0613755-.0332636 2.6208543.0343043 3.9146222.0694507.1742033-.6681322.3444608-1.3288441.5054212-1.9715835 1.3046902-5.20982807 2.5234413-8.8450772 3.9660018-11.69132678C22.3856605.9329971 23.827439-.04244786 25.1351361.00143044c1.053399.0353456 2.2905281.96132668 2.5683597 1.46496213 1.4161851 2.57422433 2.1661092 5.82490316 3.8919175 11.54623663.2151819.7133626.4301056 1.4113188.6415716 2.0915465zm-10.1938845.7666225c2.019173-.6530124 8.0497668-.1859616 12.5785991-.2866675 4.8475379-.1077927 8.3106638.1146452 11.1498926.7601449.6362384.1454885 1.8571117 1.2811451 2.1612471 2.5548621.2449924 1.0260267-.2323066 2.4631003-.5952462 2.8634236-1.8561055 2.0424103-4.4716007 3.6192447-8.9687997 6.7863289s-8.1415705 6.058094-10.3287942 6.7654551c-5.3748522 1.7382589-10.4112588-.8898311-12.04886-6.5558503-1.6376012-5.6660191.6771091-11.1494378 6.0519613-12.8876968zm-4.2293993 9.5408955c-.0744864 4.2735922 3.3247928 7.7936427 7.5983889 7.8683481 4.2735961.0747055 7.7934724-3.3243933 7.8679589-7.5979855.0744864-4.2735922-3.3247928-7.7936427-7.5983889-7.8683481-4.2735961-.0747055-7.7934724 3.3243933-7.8679589 7.5979855z" id="b"/>
    <filter x="-3.1%" y="-3.1%" width="106.2%" height="106.2%" filterUnits="objectBoundingBox" id="a">
      <feOffset in="SourceAlpha" result="shadowOffsetOuter1"/>
      <feGaussianBlur stdDeviation=".5" in="shadowOffsetOuter1" result="shadowBlurOuter1"/>
      <feComposite in="shadowBlurOuter1" in2="SourceAlpha" operator="out" result="shadowBlurOuter1"/>
      <feColorMatrix values="0 0 0 0 0 0 0 0 0 0 0 0 0 0 0 0 0 0 0.101732337 0" in="shadowBlurOuter1"/>
    </filter>
  </defs>
  <g fill="none" fill-rule="evenodd">
    <use fill="#000" filter="url(#a)" xlink:href="#b"/>
    <use fill-opacity="1" fill="#FFF" xlink:href="#b"/>
  </g>
</svg>
